<svg width="76" height="78" viewBox="0 0 76 78" fill="none" xmlns="http://www.w3.org/2000/svg">
<g opacity="0.3">
<mask id="mask0_1_11" style="mask-type:alpha" maskUnits="userSpaceOnUse" x="0" y="0" width="8" height="8">
<path d="M3.51228 7.97735C5.45206 7.97735 7.02456 6.19152 7.02456 3.98865C7.02456 1.78577 5.45206 0 3.51228 0C1.5725 0 0 1.78577 0 3.98865C0 6.19152 1.5725 7.97735 3.51228 7.97735Z" fill="url(#paint0_linear_1_11)"/>
</mask>
<g mask="url(#mask0_1_11)">
<path d="M3.51228 7.97735C5.45206 7.97735 7.02456 6.19152 7.02456 3.98865C7.02456 1.78577 5.45206 0 3.51228 0C1.5725 0 0 1.78577 0 3.98865C0 6.19152 1.5725 7.97735 3.51228 7.97735Z" fill="url(#paint1_linear_1_11)"/>
</g>
<mask id="mask1_1_11" style="mask-type:alpha" maskUnits="userSpaceOnUse" x="20" y="0" width="8" height="8">
<path d="M23.8539 7.97735C25.7937 7.97735 27.3662 6.19152 27.3662 3.98865C27.3662 1.78577 25.7937 0 23.8539 0C21.9141 0 20.3416 1.78577 20.3416 3.98865C20.3416 6.19152 21.9141 7.97735 23.8539 7.97735Z" fill="url(#paint2_linear_1_11)"/>
</mask>
<g mask="url(#mask1_1_11)">
<path d="M23.8543 7.97735C25.794 7.97735 27.3665 6.19152 27.3665 3.98865C27.3665 1.78577 25.794 0 23.8543 0C21.9145 0 20.342 1.78577 20.342 3.98865C20.342 6.19152 21.9145 7.97735 23.8543 7.97735Z" fill="url(#paint3_linear_1_11)"/>
</g>
<mask id="mask2_1_11" style="mask-type:alpha" maskUnits="userSpaceOnUse" x="40" y="0" width="8" height="8">
<path d="M44.1955 7.97735C46.1353 7.97735 47.7078 6.19152 47.7078 3.98865C47.7078 1.78577 46.1353 0 44.1955 0C42.2557 0 40.6832 1.78577 40.6832 3.98865C40.6832 6.19152 42.2557 7.97735 44.1955 7.97735Z" fill="url(#paint4_linear_1_11)"/>
</mask>
<g mask="url(#mask2_1_11)">
<path d="M44.1962 7.97735C46.136 7.97735 47.7085 6.19152 47.7085 3.98865C47.7085 1.78577 46.136 0 44.1962 0C42.2564 0 40.6839 1.78577 40.6839 3.98865C40.6839 6.19152 42.2564 7.97735 44.1962 7.97735Z" fill="url(#paint5_linear_1_11)"/>
</g>
<mask id="mask3_1_11" style="mask-type:alpha" maskUnits="userSpaceOnUse" x="61" y="0" width="8" height="8">
<path d="M64.5371 7.97735C66.4769 7.97735 68.0494 6.19152 68.0494 3.98865C68.0494 1.78577 66.4769 0 64.5371 0C62.5973 0 61.0248 1.78577 61.0248 3.98865C61.0248 6.19152 62.5973 7.97735 64.5371 7.97735Z" fill="url(#paint6_linear_1_11)"/>
</mask>
<g mask="url(#mask3_1_11)">
<path d="M64.5377 7.97735C66.4775 7.97735 68.05 6.19152 68.05 3.98865C68.05 1.78577 66.4775 0 64.5377 0C62.5979 0 61.0254 1.78577 61.0254 3.98865C61.0254 6.19152 62.5979 7.97735 64.5377 7.97735Z" fill="url(#paint7_linear_1_11)"/>
</g>
<mask id="mask4_1_11" style="mask-type:alpha" maskUnits="userSpaceOnUse" x="0" y="20" width="8" height="9">
<path d="M3.51228 28.0037C5.45206 28.0037 7.02456 26.2179 7.02456 24.015C7.02456 21.8122 5.45206 20.0264 3.51228 20.0264C1.5725 20.0264 0 21.8122 0 24.015C0 26.2179 1.5725 28.0037 3.51228 28.0037Z" fill="url(#paint8_linear_1_11)"/>
</mask>
<g mask="url(#mask4_1_11)">
<path d="M3.51228 28.0037C5.45206 28.0037 7.02456 26.218 7.02456 24.0151C7.02456 21.8122 5.45206 20.0265 3.51228 20.0265C1.5725 20.0265 0 21.8122 0 24.0151C0 26.218 1.5725 28.0037 3.51228 28.0037Z" fill="url(#paint9_linear_1_11)"/>
</g>
<mask id="mask5_1_11" style="mask-type:alpha" maskUnits="userSpaceOnUse" x="20" y="20" width="8" height="9">
<path d="M23.8539 28.0038C25.7937 28.0038 27.3662 26.218 27.3662 24.0151C27.3662 21.8123 25.7937 20.0265 23.8539 20.0265C21.9141 20.0265 20.3416 21.8123 20.3416 24.0151C20.3416 26.218 21.9141 28.0038 23.8539 28.0038Z" fill="url(#paint10_linear_1_11)"/>
</mask>
<g mask="url(#mask5_1_11)">
<path d="M23.8543 28.0037C25.794 28.0037 27.3665 26.2179 27.3665 24.0151C27.3665 21.8122 25.794 20.0264 23.8543 20.0264C21.9145 20.0264 20.342 21.8122 20.342 24.0151C20.342 26.2179 21.9145 28.0037 23.8543 28.0037Z" fill="url(#paint11_linear_1_11)"/>
</g>
<mask id="mask6_1_11" style="mask-type:alpha" maskUnits="userSpaceOnUse" x="40" y="20" width="8" height="9">
<path d="M44.1955 28.0038C46.1353 28.0038 47.7078 26.218 47.7078 24.0151C47.7078 21.8123 46.1353 20.0265 44.1955 20.0265C42.2557 20.0265 40.6832 21.8123 40.6832 24.0151C40.6832 26.218 42.2557 28.0038 44.1955 28.0038Z" fill="url(#paint12_linear_1_11)"/>
</mask>
<g mask="url(#mask6_1_11)">
<path d="M44.1962 28.0037C46.136 28.0037 47.7085 26.2179 47.7085 24.0151C47.7085 21.8122 46.136 20.0264 44.1962 20.0264C42.2564 20.0264 40.6839 21.8122 40.6839 24.0151C40.6839 26.2179 42.2564 28.0037 44.1962 28.0037Z" fill="url(#paint13_linear_1_11)"/>
</g>
<mask id="mask7_1_11" style="mask-type:alpha" maskUnits="userSpaceOnUse" x="61" y="20" width="8" height="9">
<path d="M64.5371 28.0038C66.4769 28.0038 68.0494 26.218 68.0494 24.0151C68.0494 21.8123 66.4769 20.0265 64.5371 20.0265C62.5973 20.0265 61.0248 21.8123 61.0248 24.0151C61.0248 26.218 62.5973 28.0038 64.5371 28.0038Z" fill="url(#paint14_linear_1_11)"/>
</mask>
<g mask="url(#mask7_1_11)">
<path d="M64.5377 28.0037C66.4775 28.0037 68.05 26.2179 68.05 24.0151C68.05 21.8122 66.4775 20.0264 64.5377 20.0264C62.5979 20.0264 61.0254 21.8122 61.0254 24.0151C61.0254 26.2179 62.5979 28.0037 64.5377 28.0037Z" fill="url(#paint15_linear_1_11)"/>
</g>
<mask id="mask8_1_11" style="mask-type:alpha" maskUnits="userSpaceOnUse" x="0" y="40" width="8" height="8">
<path d="M3.51228 47.9887C5.45206 47.9887 7.02456 46.2029 7.02456 44C7.02456 41.7971 5.45206 40.0113 3.51228 40.0113C1.5725 40.0113 0 41.7971 0 44C0 46.2029 1.5725 47.9887 3.51228 47.9887Z" fill="url(#paint16_linear_1_11)"/>
</mask>
<g mask="url(#mask8_1_11)">
<path d="M3.51228 47.9888C5.45206 47.9888 7.02456 46.203 7.02456 44.0001C7.02456 41.7972 5.45206 40.0114 3.51228 40.0114C1.5725 40.0114 0 41.7972 0 44.0001C0 46.203 1.5725 47.9888 3.51228 47.9888Z" fill="url(#paint17_linear_1_11)"/>
</g>
<mask id="mask9_1_11" style="mask-type:alpha" maskUnits="userSpaceOnUse" x="20" y="40" width="8" height="8">
<path d="M23.8539 47.9889C25.7937 47.9889 27.3662 46.2032 27.3662 44.0003C27.3662 41.7974 25.7937 40.0116 23.8539 40.0116C21.9141 40.0116 20.3416 41.7974 20.3416 44.0003C20.3416 46.2032 21.9141 47.9889 23.8539 47.9889Z" fill="url(#paint18_linear_1_11)"/>
</mask>
<g mask="url(#mask9_1_11)">
<path d="M23.8543 47.9888C25.794 47.9888 27.3665 46.203 27.3665 44.0001C27.3665 41.7972 25.794 40.0114 23.8543 40.0114C21.9145 40.0114 20.342 41.7972 20.342 44.0001C20.342 46.203 21.9145 47.9888 23.8543 47.9888Z" fill="url(#paint19_linear_1_11)"/>
</g>
<mask id="mask10_1_11" style="mask-type:alpha" maskUnits="userSpaceOnUse" x="40" y="40" width="8" height="8">
<path d="M44.1955 47.9889C46.1353 47.9889 47.7078 46.2032 47.7078 44.0003C47.7078 41.7974 46.1353 40.0116 44.1955 40.0116C42.2557 40.0116 40.6832 41.7974 40.6832 44.0003C40.6832 46.2032 42.2557 47.9889 44.1955 47.9889Z" fill="url(#paint20_linear_1_11)"/>
</mask>
<g mask="url(#mask10_1_11)">
<path d="M44.1962 47.9888C46.136 47.9888 47.7085 46.203 47.7085 44.0001C47.7085 41.7972 46.136 40.0114 44.1962 40.0114C42.2564 40.0114 40.6839 41.7972 40.6839 44.0001C40.6839 46.203 42.2564 47.9888 44.1962 47.9888Z" fill="url(#paint21_linear_1_11)"/>
</g>
<mask id="mask11_1_11" style="mask-type:alpha" maskUnits="userSpaceOnUse" x="61" y="40" width="8" height="8">
<path d="M64.5371 47.9889C66.4769 47.9889 68.0494 46.2032 68.0494 44.0003C68.0494 41.7974 66.4769 40.0116 64.5371 40.0116C62.5973 40.0116 61.0248 41.7974 61.0248 44.0003C61.0248 46.2032 62.5973 47.9889 64.5371 47.9889Z" fill="url(#paint22_linear_1_11)"/>
</mask>
<g mask="url(#mask11_1_11)">
<path d="M64.5377 47.9888C66.4775 47.9888 68.05 46.203 68.05 44.0001C68.05 41.7972 66.4775 40.0114 64.5377 40.0114C62.5979 40.0114 61.0254 41.7972 61.0254 44.0001C61.0254 46.203 62.5979 47.9888 64.5377 47.9888Z" fill="url(#paint23_linear_1_11)"/>
</g>
<mask id="mask12_1_11" style="mask-type:alpha" maskUnits="userSpaceOnUse" x="0" y="60" width="8" height="9">
<path d="M3.51228 68.0155C5.45206 68.0155 7.02456 66.2296 7.02456 64.0268C7.02456 61.8239 5.45206 60.0381 3.51228 60.0381C1.5725 60.0381 0 61.8239 0 64.0268C0 66.2296 1.5725 68.0155 3.51228 68.0155Z" fill="url(#paint24_linear_1_11)"/>
</mask>
<g mask="url(#mask12_1_11)">
<path d="M3.51228 68.0152C5.45206 68.0152 7.02456 66.2294 7.02456 64.0265C7.02456 61.8236 5.45206 60.0379 3.51228 60.0379C1.5725 60.0379 0 61.8236 0 64.0265C0 66.2294 1.5725 68.0152 3.51228 68.0152Z" fill="url(#paint25_linear_1_11)"/>
</g>
<mask id="mask13_1_11" style="mask-type:alpha" maskUnits="userSpaceOnUse" x="20" y="60" width="8" height="9">
<path d="M23.8539 68.0155C25.7937 68.0155 27.3662 66.2296 27.3662 64.0268C27.3662 61.8239 25.7937 60.0381 23.8539 60.0381C21.9141 60.0381 20.3416 61.8239 20.3416 64.0268C20.3416 66.2296 21.9141 68.0155 23.8539 68.0155Z" fill="url(#paint26_linear_1_11)"/>
</mask>
<g mask="url(#mask13_1_11)">
<path d="M23.8543 68.0152C25.794 68.0152 27.3665 66.2294 27.3665 64.0265C27.3665 61.8236 25.794 60.0379 23.8543 60.0379C21.9145 60.0379 20.342 61.8236 20.342 64.0265C20.342 66.2294 21.9145 68.0152 23.8543 68.0152Z" fill="url(#paint27_linear_1_11)"/>
</g>
<mask id="mask14_1_11" style="mask-type:alpha" maskUnits="userSpaceOnUse" x="40" y="60" width="8" height="9">
<path d="M44.1955 68.0155C46.1353 68.0155 47.7078 66.2296 47.7078 64.0268C47.7078 61.8239 46.1353 60.0381 44.1955 60.0381C42.2557 60.0381 40.6832 61.8239 40.6832 64.0268C40.6832 66.2296 42.2557 68.0155 44.1955 68.0155Z" fill="url(#paint28_linear_1_11)"/>
</mask>
<g mask="url(#mask14_1_11)">
<path d="M44.1962 68.0152C46.136 68.0152 47.7085 66.2294 47.7085 64.0265C47.7085 61.8236 46.136 60.0379 44.1962 60.0379C42.2564 60.0379 40.6839 61.8236 40.6839 64.0265C40.6839 66.2294 42.2564 68.0152 44.1962 68.0152Z" fill="url(#paint29_linear_1_11)"/>
</g>
<mask id="mask15_1_11" style="mask-type:alpha" maskUnits="userSpaceOnUse" x="61" y="60" width="8" height="9">
<path d="M64.5371 68.0155C66.4769 68.0155 68.0494 66.2296 68.0494 64.0268C68.0494 61.8239 66.4769 60.0381 64.5371 60.0381C62.5973 60.0381 61.0248 61.8239 61.0248 64.0268C61.0248 66.2296 62.5973 68.0155 64.5371 68.0155Z" fill="url(#paint30_linear_1_11)"/>
</mask>
<g mask="url(#mask15_1_11)">
<path d="M64.5377 68.0152C66.4775 68.0152 68.05 66.2294 68.05 64.0265C68.05 61.8236 66.4775 60.0379 64.5377 60.0379C62.5979 60.0379 61.0254 61.8236 61.0254 64.0265C61.0254 66.2294 62.5979 68.0152 64.5377 68.0152Z" fill="url(#paint31_linear_1_11)"/>
</g>
</g>
<defs>
<linearGradient id="paint0_linear_1_11" x1="34.2062" y1="92.4707" x2="-25.6516" y2="-41.3283" gradientUnits="userSpaceOnUse">
<stop stop-color="#FFA434"/>
<stop offset="1" stop-color="#FFA434"/>
</linearGradient>
<linearGradient id="paint1_linear_1_11" x1="34.2062" y1="92.4707" x2="-25.6516" y2="-41.3283" gradientUnits="userSpaceOnUse">
<stop stop-color="#FFA434"/>
<stop offset="1" stop-color="#FFA434"/>
</linearGradient>
<linearGradient id="paint2_linear_1_11" x1="54.5479" y1="92.4707" x2="-5.30991" y2="-41.3284" gradientUnits="userSpaceOnUse">
<stop stop-color="#FFA434"/>
<stop offset="1" stop-color="#FFA434"/>
</linearGradient>
<linearGradient id="paint3_linear_1_11" x1="54.5482" y1="92.4707" x2="-5.30954" y2="-41.3284" gradientUnits="userSpaceOnUse">
<stop stop-color="#FFA434"/>
<stop offset="1" stop-color="#FFA434"/>
</linearGradient>
<linearGradient id="paint4_linear_1_11" x1="74.8895" y1="92.4707" x2="15.0317" y2="-41.3284" gradientUnits="userSpaceOnUse">
<stop stop-color="#FFA434"/>
<stop offset="1" stop-color="#FFA434"/>
</linearGradient>
<linearGradient id="paint5_linear_1_11" x1="74.8902" y1="92.4707" x2="15.0324" y2="-41.3284" gradientUnits="userSpaceOnUse">
<stop stop-color="#FFA434"/>
<stop offset="1" stop-color="#FFA434"/>
</linearGradient>
<linearGradient id="paint6_linear_1_11" x1="95.231" y1="92.4707" x2="35.3733" y2="-41.3284" gradientUnits="userSpaceOnUse">
<stop stop-color="#FFA434"/>
<stop offset="1" stop-color="#FFA434"/>
</linearGradient>
<linearGradient id="paint7_linear_1_11" x1="95.2316" y1="92.4707" x2="35.3739" y2="-41.3284" gradientUnits="userSpaceOnUse">
<stop stop-color="#FFA434"/>
<stop offset="1" stop-color="#FFA434"/>
</linearGradient>
<linearGradient id="paint8_linear_1_11" x1="34.2062" y1="112.496" x2="-25.6506" y2="-21.3019" gradientUnits="userSpaceOnUse">
<stop stop-color="#FFA434"/>
<stop offset="1" stop-color="#FFA434"/>
</linearGradient>
<linearGradient id="paint9_linear_1_11" x1="34.2062" y1="112.496" x2="-25.6506" y2="-21.3019" gradientUnits="userSpaceOnUse">
<stop stop-color="#FFA434"/>
<stop offset="1" stop-color="#FFA434"/>
</linearGradient>
<linearGradient id="paint10_linear_1_11" x1="54.5479" y1="112.496" x2="-5.30892" y2="-21.3019" gradientUnits="userSpaceOnUse">
<stop stop-color="#FFA434"/>
<stop offset="1" stop-color="#FFA434"/>
</linearGradient>
<linearGradient id="paint11_linear_1_11" x1="54.5482" y1="112.496" x2="-5.30856" y2="-21.302" gradientUnits="userSpaceOnUse">
<stop stop-color="#FFA434"/>
<stop offset="1" stop-color="#FFA434"/>
</linearGradient>
<linearGradient id="paint12_linear_1_11" x1="74.8895" y1="112.496" x2="15.0327" y2="-21.3019" gradientUnits="userSpaceOnUse">
<stop stop-color="#FFA434"/>
<stop offset="1" stop-color="#FFA434"/>
</linearGradient>
<linearGradient id="paint13_linear_1_11" x1="74.8902" y1="112.496" x2="15.0334" y2="-21.302" gradientUnits="userSpaceOnUse">
<stop stop-color="#FFA434"/>
<stop offset="1" stop-color="#FFA434"/>
</linearGradient>
<linearGradient id="paint14_linear_1_11" x1="95.231" y1="112.496" x2="35.3742" y2="-21.3019" gradientUnits="userSpaceOnUse">
<stop stop-color="#FFA434"/>
<stop offset="1" stop-color="#FFA434"/>
</linearGradient>
<linearGradient id="paint15_linear_1_11" x1="95.2316" y1="112.496" x2="35.3749" y2="-21.302" gradientUnits="userSpaceOnUse">
<stop stop-color="#FFA434"/>
<stop offset="1" stop-color="#FFA434"/>
</linearGradient>
<linearGradient id="paint16_linear_1_11" x1="34.2062" y1="132.482" x2="-25.6516" y2="-1.31698" gradientUnits="userSpaceOnUse">
<stop stop-color="#FFA434"/>
<stop offset="1" stop-color="#FFA434"/>
</linearGradient>
<linearGradient id="paint17_linear_1_11" x1="34.2062" y1="132.482" x2="-25.6516" y2="-1.31689" gradientUnits="userSpaceOnUse">
<stop stop-color="#FFA434"/>
<stop offset="1" stop-color="#FFA434"/>
</linearGradient>
<linearGradient id="paint18_linear_1_11" x1="54.5479" y1="132.482" x2="-5.30991" y2="-1.31676" gradientUnits="userSpaceOnUse">
<stop stop-color="#FFA434"/>
<stop offset="1" stop-color="#FFA434"/>
</linearGradient>
<linearGradient id="paint19_linear_1_11" x1="54.5482" y1="132.482" x2="-5.30954" y2="-1.31694" gradientUnits="userSpaceOnUse">
<stop stop-color="#FFA434"/>
<stop offset="1" stop-color="#FFA434"/>
</linearGradient>
<linearGradient id="paint20_linear_1_11" x1="74.8895" y1="132.482" x2="15.0317" y2="-1.31676" gradientUnits="userSpaceOnUse">
<stop stop-color="#FFA434"/>
<stop offset="1" stop-color="#FFA434"/>
</linearGradient>
<linearGradient id="paint21_linear_1_11" x1="74.8902" y1="132.482" x2="15.0324" y2="-1.31694" gradientUnits="userSpaceOnUse">
<stop stop-color="#FFA434"/>
<stop offset="1" stop-color="#FFA434"/>
</linearGradient>
<linearGradient id="paint22_linear_1_11" x1="95.231" y1="132.482" x2="35.3733" y2="-1.31676" gradientUnits="userSpaceOnUse">
<stop stop-color="#FFA434"/>
<stop offset="1" stop-color="#FFA434"/>
</linearGradient>
<linearGradient id="paint23_linear_1_11" x1="95.2316" y1="132.482" x2="35.3739" y2="-1.31694" gradientUnits="userSpaceOnUse">
<stop stop-color="#FFA434"/>
<stop offset="1" stop-color="#FFA434"/>
</linearGradient>
<linearGradient id="paint24_linear_1_11" x1="34.2062" y1="152.509" x2="-25.6516" y2="18.7098" gradientUnits="userSpaceOnUse">
<stop stop-color="#FFA434"/>
<stop offset="1" stop-color="#FFA434"/>
</linearGradient>
<linearGradient id="paint25_linear_1_11" x1="34.2062" y1="152.509" x2="-25.6516" y2="18.7096" gradientUnits="userSpaceOnUse">
<stop stop-color="#FFA434"/>
<stop offset="1" stop-color="#FFA434"/>
</linearGradient>
<linearGradient id="paint26_linear_1_11" x1="54.5479" y1="152.509" x2="-5.30991" y2="18.7098" gradientUnits="userSpaceOnUse">
<stop stop-color="#FFA434"/>
<stop offset="1" stop-color="#FFA434"/>
</linearGradient>
<linearGradient id="paint27_linear_1_11" x1="54.5482" y1="152.509" x2="-5.30954" y2="18.7095" gradientUnits="userSpaceOnUse">
<stop stop-color="#FFA434"/>
<stop offset="1" stop-color="#FFA434"/>
</linearGradient>
<linearGradient id="paint28_linear_1_11" x1="74.8895" y1="152.509" x2="15.0317" y2="18.7098" gradientUnits="userSpaceOnUse">
<stop stop-color="#FFA434"/>
<stop offset="1" stop-color="#FFA434"/>
</linearGradient>
<linearGradient id="paint29_linear_1_11" x1="74.8902" y1="152.509" x2="15.0324" y2="18.7095" gradientUnits="userSpaceOnUse">
<stop stop-color="#FFA434"/>
<stop offset="1" stop-color="#FFA434"/>
</linearGradient>
<linearGradient id="paint30_linear_1_11" x1="95.231" y1="152.509" x2="35.3733" y2="18.7098" gradientUnits="userSpaceOnUse">
<stop stop-color="#FFA434"/>
<stop offset="1" stop-color="#FFA434"/>
</linearGradient>
<linearGradient id="paint31_linear_1_11" x1="95.2316" y1="152.509" x2="35.3739" y2="18.7095" gradientUnits="userSpaceOnUse">
<stop stop-color="#FFA434"/>
<stop offset="1" stop-color="#FFA434"/>
</linearGradient>
</defs>
</svg>
